<?xml version="1.0" encoding="UTF-8"?>
<svg width="300px" height="300px" viewBox="0 0 300 300" version="1.1" xmlns="http://www.w3.org/2000/svg" xmlns:xlink="http://www.w3.org/1999/xlink">
    <!-- Generator: Sketch 62 (91390) - https://sketch.com -->
    <title>bd</title>
    <desc>Created with Sketch.</desc>
    <g id="Page-1" stroke="none" stroke-width="1" fill="none" fill-rule="evenodd">
        <path d="M120.712981,175.393399 C120.048303,178.691228 118.976795,181.568273 117.493917,184.022692 C116.028011,186.44902 114.107785,188.357967 111.731869,189.748131 C109.352751,191.140169 106.440497,191.828125 103,191.828125 C98.6447002,191.828125 95.0813164,190.827223 92.3192796,188.80004 C89.6815191,186.864069 87.6319353,184.397675 86.1720917,181.406738 L86,146.346873 C87.6297924,142.997279 89.6651125,140.557415 92.2771203,138.670965 C95.0138014,136.694473 98.5390772,135.71875 102.84375,135.71875 C106.3869,135.71875 109.376456,136.431968 111.807231,137.87524 C114.233403,139.31578 116.166359,141.274747 117.606853,143.751387 C119.065004,146.258382 120.11183,149.162544 120.75132,152.462317 C121.346862,155.535312 121.667206,158.773251 121.712983,162.172685 L121.71875,163.03125 L121.718762,164.66848 L121.712787,165.550083 C121.665155,169.040003 121.332196,172.321143 120.712981,175.393399 Z M214.57929,145.078208 L214.765625,181.891158 C213.034224,185.075602 211.008114,187.350893 208.499335,189.063617 C205.863935,190.862784 202.465406,191.75 198.3125,191.75 C194.973414,191.75 192.099894,191.060676 189.695831,189.668849 C187.291132,188.276655 185.317549,186.364834 183.773574,183.934972 C182.214403,181.481194 181.079075,178.617707 180.36345,175.346277 C179.693208,172.282312 179.334657,169.018258 179.286819,165.557705 L179.28125,164.75 L179.281237,163.112936 L179.286979,162.304981 C179.336557,158.837882 179.707958,155.548515 180.402068,152.436988 C181.144009,149.111042 182.293421,146.193532 183.854173,143.686095 C185.39843,141.205158 187.372164,139.254774 189.777344,137.836984 C192.181081,136.420044 195.079658,135.71875 198.46875,135.71875 C202.46995,135.71875 205.804282,136.595446 208.464837,138.36915 C210.99684,140.057152 213.035221,142.295822 214.57929,145.078208 Z M299.5,209 C299.5,233.990885 289.370442,256.615885 272.993164,272.993164 C256.615885,289.370442 233.990885,299.5 209,299.5 L91,299.5 C66.0091151,299.5 43.3841151,289.370442 27.0068363,272.993164 C10.6295575,256.615885 0.5,233.990885 0.5,209 L0.5,91 C0.5,66.0091151 10.6295575,43.3841151 27.0068363,27.0068363 C43.3841151,10.6295575 66.0091151,0.5 91,0.5 L209,0.5 C233.990885,0.5 256.615885,10.6295575 272.993164,27.0068363 C289.370442,43.3841151 299.5,66.0091151 299.5,91 L299.5,209 Z M215.754619,198.621615 L216.614079,206.5 L234.515625,206.5 L234.515625,85.5 L214.765625,85.5 L214.765625,127.85696 C212.259852,125.28537 209.39657,123.278549 206.173374,121.832851 C202.572623,120.217808 198.416503,119.40625 193.703125,119.40625 C188.463282,119.40625 183.740434,120.467693 179.533083,122.5846 C175.325457,124.701644 171.739104,127.691332 168.775159,131.555045 C165.823516,135.402723 163.554774,140.01364 161.973442,145.390167 C160.469868,150.502319 159.682594,156.116656 159.614249,162.233599 L159.609383,163.106593 L159.609375,164.75 L159.614788,165.627964 C159.687479,171.49291 160.487852,176.937604 162.013735,181.965514 C163.62088,187.261187 165.88858,191.831197 168.812909,195.677611 C171.748976,199.539465 175.307043,202.567562 179.486223,204.762954 C183.669995,206.960758 188.356389,208.0625 193.546875,208.0625 C198.576225,208.0625 202.982133,207.171326 206.766823,205.39808 C210.211006,203.784372 213.207116,201.525785 215.754619,198.621615 Z M58.4126465,71.7365551 C54.5369477,71.6957565 51.0750333,72.2276635 48.0258027,73.3264853 C45.0809874,74.38768 42.4816618,75.8212331 40.226715,77.6251906 C37.9709761,79.4297817 36.0602703,81.5395915 34.494525,83.9545547 C32.9378036,86.3555995 31.6580051,88.9280928 30.6553675,91.6721535 C29.6545104,94.4113416 28.9301808,97.2295391 28.4824287,100.126759 C28.0853549,102.69606 27.8648989,105.203084 27.8207797,107.647807 L27.8125205,108.557974 L27.8125,121.296875 L27.80974,121.799541 C27.7342459,128.646901 26.1065884,133.619719 22.8530644,136.674554 C19.6034136,139.725753 14.6888229,141.262497 8.13675376,141.340627 L7.109375,141.346694 L7.109375,156.090744 L8.15364065,156.097041 C14.6964694,156.1765 19.6068686,157.700714 22.8545516,160.725274 C26.1053079,163.752696 27.7323844,168.683379 27.8096314,175.476402 L27.812508,175.987199 L27.8125,188.71875 L27.8199419,189.552521 C27.8649854,192.073702 28.1122767,194.622399 28.5621148,197.203049 C29.0627045,200.074853 29.8530583,202.880806 30.9332795,205.62088 C32.0139521,208.362098 33.3582646,210.945134 34.9660918,213.370054 C36.5836756,215.809689 38.5195936,217.930987 40.77359,219.734184 C43.0279273,221.537654 45.5869321,222.970482 48.4513428,224.031374 C51.432185,225.13539 54.7573698,225.667361 58.4278409,225.622368 L60.3080237,213.682379 C57.4872253,213.771898 55.1810868,213.079521 53.400361,211.578624 C51.6334597,210.089378 50.2351852,208.156706 49.2004897,205.784477 C48.1504634,203.3771 47.4347658,200.674878 47.0506283,197.678605 C46.7058396,194.989253 46.5142406,192.330551 46.4759307,189.702492 L46.4687367,188.7151 L46.46875,175.984375 L46.4638297,175.363042 C46.3674134,169.317675 44.8701803,163.970217 41.9794715,159.314385 C39.1618501,154.77627 34.8364828,151.239214 28.9910007,148.717083 C34.7861986,146.192103 39.0993558,142.630549 41.9406591,138.044586 C44.8566344,133.3381 46.3665279,127.964701 46.4637374,121.922366 L46.4687339,121.300882 L46.46875,108.5625 L46.476339,107.077423 C46.5015546,104.603321 46.5898846,102.099641 46.741295,99.5689236 C46.9204732,96.574088 47.4435938,93.873189 48.3139381,91.466943 C49.1663784,89.1101963 50.5185791,87.1907455 52.3742028,85.7112618 C54.2501686,84.2155594 56.8782522,83.5286099 60.7167557,83.5984505 L58.4126465,71.7365551 Z M139.224459,182.030402 C140.599106,177.00669 141.320262,171.518924 141.385723,165.566776 L141.390617,164.674614 L141.390625,163.03125 L141.385746,162.124449 C141.320275,156.073013 140.599203,150.5124 139.224788,145.439559 C137.774831,140.087898 135.623983,135.488884 132.776974,131.64015 C129.917339,127.774348 126.382225,124.769484 122.172275,122.624793 C117.966097,120.482023 113.112556,119.40625 107.609375,119.40625 C102.631831,119.40625 98.3177536,120.258457 94.6646375,121.952656 C91.3954546,123.468799 88.507104,125.556265 86,128.215617 L86,85.5 L66.328125,85.5 L66.328125,206.5 L84.2360792,206.5 L85.023807,198.193052 C87.6198815,201.23401 90.6613362,203.594309 94.149813,205.278401 C97.9871166,207.130892 102.524814,208.0625 107.765625,208.0625 C113.217864,208.0625 118.033464,206.973174 122.214698,204.803167 C126.397082,202.632562 129.918079,199.615278 132.776974,195.750475 C135.623921,191.901824 137.77454,187.329197 139.224459,182.030402 Z M279.764032,160.723969 C282.989047,157.697417 287.915748,156.174343 294.515476,156.096849 L295.546875,156.090851 L295.546875,141.346681 L294.512545,141.3406 C287.916504,141.262505 282.990215,139.726928 279.765515,136.675866 C276.538415,133.622533 274.923285,128.653319 274.846597,121.80863 L274.843742,121.294093 L274.84375,108.5625 L274.835531,107.652303 C274.791351,105.203084 274.570895,102.69606 274.173821,100.126759 C273.726069,97.2295391 273.00174,94.4113416 272.000882,91.6721535 C270.998245,88.9280928 269.718446,86.3555995 268.161725,83.9545547 C266.59598,81.5395915 264.685274,79.4297817 262.429535,77.6251906 C260.174588,75.8212331 257.575263,74.38768 254.630447,73.3264853 C251.862056,72.3288668 248.753598,71.7985418 245.304218,71.7398539 L244.228376,71.7307272 L242.388279,83.5967807 C245.763368,83.5211777 248.400722,84.2112862 250.282047,85.7112618 C252.137671,87.1907455 253.489872,89.1101963 254.342312,91.466943 C255.212656,93.873189 255.735777,96.574088 255.914955,99.5689236 C256.066365,102.099641 256.154695,104.603321 256.17993,107.079964 L256.187507,108.565053 L256.1875,121.296875 L256.19229,121.9131 C256.286102,127.907852 257.742501,133.25478 260.555217,137.959687 C263.302508,142.555154 267.504008,146.14532 273.170533,148.718386 C267.504813,151.290041 263.30319,154.867121 260.555835,159.43772 C257.742638,164.117858 256.286119,169.42779 256.192337,175.369322 L256.187515,175.980443 L256.1875,188.71875 L256.179799,189.705887 C256.138999,192.328854 255.934716,194.986329 255.567111,197.674442 C255.156942,200.673799 254.440386,203.378758 253.414923,205.788597 C252.406184,208.159133 251.021539,210.090433 249.255889,211.578624 C247.482969,213.072942 245.188402,213.761438 241.940091,213.68158 L244.244226,225.628947 L245.301881,225.618874 C248.552812,225.556619 251.518644,225.026287 254.204907,224.031374 C257.069318,222.970482 259.628323,221.537654 261.88266,219.734184 C264.136656,217.930987 266.072574,215.809689 267.690158,213.370054 C269.297985,210.945134 270.642298,208.362098 271.72297,205.62088 C272.803231,202.880706 273.593658,200.061488 274.094267,197.163228 C274.544066,194.559126 274.791266,192.01893 274.836246,189.542674 L274.843729,188.723304 L274.84375,175.984375 L274.846621,175.473519 C274.923262,168.682689 276.537814,163.75165 279.764032,160.723969 Z" id="Combined-Shape" fill="currentColor"></path>
    </g>
</svg>